<svg width="346" height="61" viewBox="0 0 346 61" fill="none" xmlns="http://www.w3.org/2000/svg">
<path d="M119.9 48.45C116.9 48.45 114.217 47.85 111.85 46.65C109.517 45.45 107.683 43.8 106.35 41.7C105.017 39.5667 104.35 37.1333 104.35 34.4C104.35 31.6667 105.017 29.25 106.35 27.15C107.683 25.05 109.517 23.4167 111.85 22.25C114.217 21.05 116.9 20.45 119.9 20.45C122.967 20.45 125.617 21.1 127.85 22.4C130.083 23.7 131.667 25.5333 132.6 27.9L125.25 31.65C124.617 30.3833 123.833 29.4667 122.9 28.9C121.967 28.3 120.95 28 119.85 28C118.75 28 117.75 28.25 116.85 28.75C115.95 29.25 115.233 29.9833 114.7 30.95C114.2 31.8833 113.95 33.0333 113.95 34.4C113.95 35.8 114.2 36.9833 114.7 37.95C115.233 38.9167 115.95 39.65 116.85 40.15C117.75 40.65 118.75 40.9 119.85 40.9C120.95 40.9 121.967 40.6167 122.9 40.05C123.833 39.45 124.617 38.5167 125.25 37.25L132.6 41C131.667 43.3667 130.083 45.2 127.85 46.5C125.617 47.8 122.967 48.45 119.9 48.45ZM153.729 20.45C155.829 20.45 157.729 20.8833 159.429 21.75C161.129 22.5833 162.463 23.8833 163.429 25.65C164.429 27.4167 164.929 29.7 164.929 32.5V48H155.429V34.05C155.429 32.1167 155.029 30.7167 154.229 29.85C153.463 28.95 152.379 28.5 150.979 28.5C149.979 28.5 149.063 28.7333 148.229 29.2C147.396 29.6333 146.746 30.3167 146.279 31.25C145.813 32.1833 145.579 33.4 145.579 34.9V48H136.079V10.9H145.579V28.6L143.379 26.35C144.413 24.3833 145.829 22.9167 147.629 21.95C149.429 20.95 151.463 20.45 153.729 20.45ZM185.436 48.45C182.236 48.45 179.436 47.85 177.036 46.65C174.669 45.4167 172.819 43.75 171.486 41.65C170.186 39.5167 169.536 37.1 169.536 34.4C169.536 31.7 170.169 29.3 171.436 27.2C172.736 25.0667 174.519 23.4167 176.786 22.25C179.052 21.05 181.602 20.45 184.436 20.45C187.102 20.45 189.536 21 191.736 22.1C193.936 23.1667 195.686 24.75 196.986 26.85C198.286 28.95 198.936 31.5 198.936 34.5C198.936 34.8333 198.919 35.2167 198.886 35.65C198.852 36.0833 198.819 36.4833 198.786 36.85H177.336V31.85H193.736L190.136 33.25C190.169 32.0167 189.936 30.95 189.436 30.05C188.969 29.15 188.302 28.45 187.436 27.95C186.602 27.45 185.619 27.2 184.486 27.2C183.352 27.2 182.352 27.45 181.486 27.95C180.652 28.45 180.002 29.1667 179.536 30.1C179.069 31 178.836 32.0667 178.836 33.3V34.75C178.836 36.0833 179.102 37.2333 179.636 38.2C180.202 39.1667 181.002 39.9167 182.036 40.45C183.069 40.95 184.302 41.2 185.736 41.2C187.069 41.2 188.202 41.0167 189.136 40.65C190.102 40.25 191.052 39.65 191.986 38.85L196.986 44.05C195.686 45.4833 194.086 46.5833 192.186 47.35C190.286 48.0833 188.036 48.45 185.436 48.45ZM217.516 48.45C214.316 48.45 211.516 47.85 209.116 46.65C206.749 45.4167 204.899 43.75 203.566 41.65C202.266 39.5167 201.616 37.1 201.616 34.4C201.616 31.7 202.249 29.3 203.516 27.2C204.816 25.0667 206.599 23.4167 208.866 22.25C211.132 21.05 213.682 20.45 216.516 20.45C219.182 20.45 221.616 21 223.816 22.1C226.016 23.1667 227.766 24.75 229.066 26.85C230.366 28.95 231.016 31.5 231.016 34.5C231.016 34.8333 230.999 35.2167 230.966 35.65C230.932 36.0833 230.899 36.4833 230.866 36.85H209.416V31.85H225.816L222.216 33.25C222.249 32.0167 222.016 30.95 221.516 30.05C221.049 29.15 220.382 28.45 219.516 27.95C218.682 27.45 217.699 27.2 216.566 27.2C215.432 27.2 214.432 27.45 213.566 27.95C212.732 28.45 212.082 29.1667 211.616 30.1C211.149 31 210.916 32.0667 210.916 33.3V34.75C210.916 36.0833 211.182 37.2333 211.716 38.2C212.282 39.1667 213.082 39.9167 214.116 40.45C215.149 40.95 216.382 41.2 217.816 41.2C219.149 41.2 220.282 41.0167 221.216 40.65C222.182 40.25 223.132 39.65 224.066 38.85L229.066 44.05C227.766 45.4833 226.166 46.5833 224.266 47.35C222.366 48.0833 220.116 48.45 217.516 48.45ZM245.246 48.45C242.946 48.45 240.696 48.1833 238.496 47.65C236.329 47.1167 234.579 46.45 233.246 45.65L236.096 39.15C237.362 39.9167 238.846 40.5333 240.546 41C242.246 41.4333 243.912 41.65 245.546 41.65C247.146 41.65 248.246 41.4833 248.846 41.15C249.479 40.8167 249.796 40.3667 249.796 39.8C249.796 39.2667 249.496 38.8833 248.896 38.65C248.329 38.3833 247.562 38.1833 246.596 38.05C245.662 37.9167 244.629 37.7667 243.496 37.6C242.362 37.4333 241.212 37.2167 240.046 36.95C238.912 36.65 237.862 36.2167 236.896 35.65C235.962 35.05 235.212 34.25 234.646 33.25C234.079 32.25 233.796 30.9833 233.796 29.45C233.796 27.7167 234.296 26.1833 235.296 24.85C236.329 23.4833 237.829 22.4167 239.796 21.65C241.762 20.85 244.162 20.45 246.996 20.45C248.896 20.45 250.812 20.65 252.746 21.05C254.712 21.4167 256.362 21.9833 257.696 22.75L254.846 29.2C253.512 28.4333 252.179 27.9167 250.846 27.65C249.512 27.35 248.246 27.2 247.046 27.2C245.446 27.2 244.312 27.3833 243.646 27.75C243.012 28.1167 242.696 28.5667 242.696 29.1C242.696 29.6333 242.979 30.05 243.546 30.35C244.112 30.6167 244.862 30.8333 245.796 31C246.762 31.1333 247.812 31.2833 248.946 31.45C250.079 31.5833 251.212 31.8 252.346 32.1C253.512 32.4 254.562 32.85 255.496 33.45C256.462 34.0167 257.229 34.8 257.796 35.8C258.362 36.7667 258.646 38.0167 258.646 39.55C258.646 41.2167 258.129 42.7167 257.096 44.05C256.096 45.3833 254.596 46.45 252.596 47.25C250.629 48.05 248.179 48.45 245.246 48.45ZM262.739 48V20.9H272.239V48H262.739ZM267.489 17.9C265.756 17.9 264.356 17.4167 263.289 16.45C262.223 15.4833 261.689 14.2833 261.689 12.85C261.689 11.4167 262.223 10.2167 263.289 9.25C264.356 8.28333 265.756 7.8 267.489 7.8C269.223 7.8 270.623 8.26667 271.689 9.2C272.756 10.1 273.289 11.2667 273.289 12.7C273.289 14.2 272.756 15.45 271.689 16.45C270.656 17.4167 269.256 17.9 267.489 17.9ZM296.063 20.45C298.163 20.45 300.063 20.8833 301.763 21.75C303.463 22.5833 304.797 23.8833 305.763 25.65C306.763 27.4167 307.263 29.7 307.263 32.5V48H297.763V34.05C297.763 32.1167 297.363 30.7167 296.563 29.85C295.797 28.95 294.713 28.5 293.313 28.5C292.313 28.5 291.397 28.7333 290.563 29.2C289.73 29.6333 289.08 30.3167 288.613 31.25C288.147 32.1833 287.913 33.4 287.913 34.9V48H278.413V20.9H287.463V28.6L285.713 26.35C286.747 24.3833 288.163 22.9167 289.963 21.95C291.763 20.95 293.797 20.45 296.063 20.45ZM326.82 58.15C324.22 58.15 321.736 57.85 319.37 57.25C317.036 56.65 315.036 55.7667 313.37 54.6L316.82 47.95C317.953 48.85 319.353 49.55 321.02 50.05C322.72 50.5833 324.37 50.85 325.97 50.85C328.536 50.85 330.386 50.2833 331.52 49.15C332.653 48.05 333.22 46.4333 333.22 44.3V41.1L333.72 33.5L333.67 25.85V20.9H342.72V43.05C342.72 48.1833 341.336 51.9833 338.57 54.45C335.803 56.9167 331.886 58.15 326.82 58.15ZM325.17 46.6C322.77 46.6 320.553 46.0667 318.52 45C316.52 43.9 314.903 42.3833 313.67 40.45C312.47 38.4833 311.87 36.1667 311.87 33.5C311.87 30.8333 312.47 28.5333 313.67 26.6C314.903 24.6333 316.52 23.1167 318.52 22.05C320.553 20.9833 322.77 20.45 325.17 20.45C327.47 20.45 329.436 20.9167 331.07 21.85C332.703 22.75 333.936 24.1667 334.77 26.1C335.636 28.0333 336.07 30.5 336.07 33.5C336.07 36.5 335.636 38.9667 334.77 40.9C333.936 42.8333 332.703 44.2667 331.07 45.2C329.436 46.1333 327.47 46.6 325.17 46.6ZM327.42 39.05C328.553 39.05 329.553 38.8167 330.42 38.35C331.32 37.8833 332.02 37.2333 332.52 36.4C333.053 35.5667 333.32 34.6 333.32 33.5C333.32 32.4 333.053 31.4333 332.52 30.6C332.02 29.7667 331.32 29.1333 330.42 28.7C329.553 28.2333 328.553 28 327.42 28C326.286 28 325.27 28.2333 324.37 28.7C323.47 29.1333 322.753 29.7667 322.22 30.6C321.72 31.4333 321.47 32.4 321.47 33.5C321.47 34.6 321.72 35.5667 322.22 36.4C322.753 37.2333 323.47 37.8833 324.37 38.35C325.27 38.8167 326.286 39.05 327.42 39.05Z" fill="white"/>
<path d="M2.18081 56.9233C3.8103 58.5494 51.0565 59.2522 51.0565 59.2522C51.6709 50.088 67.8813 51.141 67.6811 58.7773C67.6811 58.7773 79.8634 57.7887 80.7306 56.9233C83.063 54.5958 80.7306 22.3464 80.7306 22.3464C80.8219 11.4867 70.9047 1.55615 59.3414 1.64723C52.8493 1.59938 24.8542 10.9087 24.8542 10.9087C26.508 15.0465 19.9221 18.398 17.0012 14.0197C17.0012 14.0197 2.77166 20.6446 2.18081 22.3464C1.82111 23.3825 1.02001 36.2514 1.02001 36.2514C8.09406 36.5573 7.28269 46.0791 0.836914 45.7941C0.836914 45.7941 1.23737 55.9819 2.18081 56.9233Z" fill="#F6BA0A"/>
<path d="M75.6358 19.7476C66.4814 23.2961 51.7261 24.707 37.9833 24.7578C24.2405 24.8086 11.3705 23.4864 6.21423 21.9088C6.08431 21.869 5.9478 21.8552 5.81251 21.868C5.67721 21.8809 5.54577 21.9202 5.42571 21.9838C5.30565 22.0473 5.1993 22.1338 5.11275 22.2384C5.0262 22.343 4.96114 22.4635 4.92128 22.5932C4.8814 22.7228 4.86751 22.8591 4.88039 22.9941C4.89328 23.1291 4.93269 23.2602 4.99638 23.38C5.06006 23.4999 5.14678 23.606 5.25156 23.6923C5.35635 23.7787 5.47715 23.8436 5.60708 23.8834C11.3496 25.6404 24.1154 26.8741 37.991 26.8228C51.8665 26.7715 66.7122 25.4223 76.385 21.6729C76.5117 21.6238 76.6274 21.5502 76.7256 21.4565C76.8238 21.3627 76.9026 21.2506 76.9573 21.1265C77.0121 21.0024 77.0419 20.8687 77.0449 20.7331C77.0479 20.5975 77.0241 20.4626 76.9748 20.3362C76.8755 20.081 76.6786 19.8756 76.4275 19.7653C76.1764 19.6549 75.8916 19.6485 75.6358 19.7476Z" fill="black"/>
<path d="M70.0031 46.067C73.1214 46.067 75.6493 42.8163 75.6493 38.8064C75.6493 34.7964 73.1214 31.5457 70.0031 31.5457C66.8848 31.5457 64.3569 34.7964 64.3569 38.8064C64.3569 42.8163 66.8848 46.067 70.0031 46.067Z" fill="black"/>
<path d="M23.3219 51.1191C25.3493 51.1191 26.9929 49.0055 26.9929 46.3984C26.9929 43.7912 25.3493 41.6776 23.3219 41.6776C21.2944 41.6776 19.6509 43.7912 19.6509 46.3984C19.6509 49.0055 21.2944 51.1191 23.3219 51.1191Z" fill="black"/>
<path d="M53.6661 16.0732C56.66 15.0741 58.5831 12.7602 57.9613 10.905C57.3396 9.04975 54.4085 8.35576 51.4146 9.3549C48.4207 10.354 46.4977 12.6679 47.1194 14.5232C47.7412 16.3784 50.6722 17.0724 53.6661 16.0732Z" fill="black"/>
<path d="M59.5401 0.687082C57.6635 0.674561 54.7264 1.27107 51.1651 2.1429C47.6001 3.01566 43.4807 4.17863 39.5659 5.34217C31.7364 7.66925 24.7248 10.0011 24.7248 10.0011C24.5911 10.0456 24.4679 10.1168 24.3628 10.2105C24.2577 10.3041 24.1729 10.4182 24.1135 10.5457C24.0542 10.6733 24.0215 10.8115 24.0176 10.9521C24.0137 11.0926 24.0386 11.2325 24.0907 11.3631C24.3988 12.1339 24.3214 12.7629 24.015 13.3521C23.7085 13.9412 23.1278 14.4694 22.4175 14.7873C20.9968 15.4232 19.2546 15.3095 18.0605 13.5196C17.9233 13.314 17.7169 13.1643 17.4786 13.0976C17.2404 13.0309 16.986 13.0515 16.7617 13.1559C16.7617 13.1559 13.1909 14.8182 9.53634 16.6992C7.70905 17.6397 5.86116 18.6334 4.40576 19.5171C3.67806 19.9589 3.0501 20.3707 2.55217 20.7551C2.05424 21.1395 1.65087 21.3597 1.40069 22.0803C1.26671 22.4662 1.25746 22.7155 1.19879 23.1853C1.14012 23.6551 1.07852 24.2503 1.01511 24.9326C0.888268 26.2971 0.75432 28.0069 0.631438 29.6839C0.385671 33.0378 0.184946 36.259 0.184946 36.259C0.176405 36.396 0.195318 36.5334 0.240593 36.663C0.285868 36.7927 0.356595 36.912 0.448627 37.014C0.540659 37.1161 0.652147 37.1988 0.776587 37.2573C0.901027 37.3159 1.03592 37.3491 1.17337 37.355C2.70903 37.4214 3.67776 37.9535 4.30217 38.6643C4.92658 39.3752 5.21249 40.3141 5.16302 41.2625C5.06408 43.1593 3.79263 44.9545 1.08081 44.8346C0.937779 44.8283 0.79498 44.8516 0.661457 44.9032C0.527935 44.9547 0.406588 45.0334 0.305082 45.1341C0.203575 45.2349 0.124128 45.3555 0.0717495 45.4885C0.0193709 45.6215 -0.00479295 45.7638 0.00078615 45.9066C0.00078615 45.9066 0.10132 48.4696 0.321627 51.1618C0.43178 52.5079 0.571125 53.8857 0.748457 55.0186C0.837121 55.5851 0.933598 56.0882 1.05203 56.5195C1.17047 56.9507 1.21228 57.2915 1.6472 57.7255C1.91583 57.9935 2.10971 58.0447 2.31334 58.1174C2.51696 58.1902 2.73121 58.2451 2.9766 58.2983C3.46737 58.4048 4.08034 58.4978 4.82252 58.5874C6.30687 58.7666 8.2977 58.9276 10.6375 59.0755C15.317 59.3714 21.3818 59.6119 27.3951 59.8015C39.4216 60.1809 51.239 60.3567 51.239 60.3567C51.5041 60.3606 51.7605 60.2628 51.9555 60.0836C52.1505 59.9043 52.2691 59.6572 52.2869 59.3933C52.82 51.4415 67.0066 52.6454 66.8446 58.8224C66.8409 58.9672 66.8677 59.1113 66.9234 59.2451C66.979 59.379 67.0623 59.4997 67.1678 59.5993C67.2733 59.6989 67.3986 59.7753 67.5356 59.8234C67.6726 59.8715 67.8183 59.8903 67.963 59.8786C67.963 59.8786 71.0201 59.6303 74.1947 59.2727C75.782 59.0939 77.3977 58.8886 78.6971 58.6683C79.3467 58.5581 79.9149 58.4454 80.3833 58.3218C80.8516 58.1981 81.1585 58.2263 81.6604 57.7255C82.0326 57.354 82.168 56.9668 82.303 56.5242C82.438 56.0817 82.538 55.5737 82.6225 54.9885C82.7914 53.8181 82.8913 52.3415 82.9466 50.6445C83.0574 47.2505 82.9835 42.9869 82.8373 38.7979C82.5449 30.4198 81.9606 22.344 81.9606 22.344L81.9636 22.4268C82.0602 10.9373 71.6977 0.596588 59.5401 0.687082ZM59.532 2.75165C59.5371 2.75169 59.5421 2.75169 59.5472 2.75165C70.5121 2.66529 79.9795 12.1824 79.8935 22.4096C79.8934 22.4374 79.8944 22.4651 79.8965 22.4928C79.8965 22.4928 80.4782 30.5416 80.7689 38.8701C80.9142 43.0344 80.9861 47.2696 80.8782 50.577C80.8242 52.2307 80.7236 53.6555 80.5737 54.6942C80.4987 55.2135 80.4099 55.6372 80.3229 55.9227C80.2606 56.1267 80.2432 56.14 80.2327 56.1672C80.151 56.2094 80.0205 56.2813 79.8543 56.3252C79.4904 56.4212 78.9647 56.5277 78.3503 56.6319C77.1216 56.8403 75.5293 57.0441 73.9626 57.2206C71.338 57.5162 69.557 57.6587 68.7965 57.7226C67.5571 50.024 52.0921 49.4125 50.3983 58.2758C49.1283 58.2563 38.7577 58.0938 27.4603 57.7374C21.4583 57.5481 15.4058 57.3075 10.7684 57.0143C8.44969 56.8677 6.48226 56.7076 5.07094 56.5372C4.36528 56.452 3.79623 56.3627 3.4159 56.2802C3.28838 56.2525 3.22225 56.2311 3.14446 56.2084C3.11232 56.1424 3.07748 56.081 3.04806 55.9739C2.96401 55.6678 2.87495 55.2209 2.7934 54.6999C2.63031 53.6579 2.49221 52.3118 2.38432 50.9934C2.21072 48.8719 2.16249 47.5576 2.13062 46.836C5.19357 46.4425 7.09588 43.9322 7.22955 41.3697C7.30438 39.935 6.87002 38.4544 5.85842 37.3028C5.03431 36.3646 3.81543 35.7008 2.31574 35.4316C2.36275 34.6871 2.48655 32.6871 2.69557 29.8346C2.81792 28.1649 2.95134 26.4633 3.07587 25.1236C3.13814 24.4537 3.19837 23.8732 3.25236 23.4409C3.29857 23.0709 3.34837 22.8632 3.34156 22.8551C3.37839 22.8375 3.53904 22.6041 3.81827 22.3885C4.21161 22.0849 4.79206 21.7001 5.48147 21.2816C6.86027 20.4444 8.68102 19.463 10.485 18.5345C13.7301 16.8643 16.3083 15.6656 16.9176 15.3803C18.6838 17.3053 21.3008 17.5508 23.2644 16.6719C24.359 16.1821 25.2977 15.3701 25.8523 14.304C26.2552 13.5292 26.4223 12.6078 26.2896 11.6646C27.5106 11.2612 33.1596 9.40124 40.1568 7.32156C44.0523 6.16374 48.1486 5.00838 51.6586 4.14909C55.1686 3.28979 58.1623 2.74156 59.532 2.75165Z" fill="black"/>
<path d="M69.9411 30.4554C68.0216 30.4554 66.3094 31.4664 65.1314 32.9813C63.9533 34.4962 63.2605 36.527 63.2605 38.7486C63.2605 40.9701 63.9533 43.0009 65.1314 44.5159C66.3094 46.0308 68.0216 47.0418 69.9411 47.0418C71.8606 47.0418 73.5733 46.0308 74.7513 44.5159C75.9294 43.0009 76.6222 40.9701 76.6222 38.7486C76.6222 36.527 75.9294 34.4962 74.7513 32.9813C73.5733 31.4664 71.8606 30.4554 69.9411 30.4554ZM69.9411 32.5209C71.1399 32.5209 72.251 33.1346 73.1164 34.2476C73.9819 35.3605 74.5528 36.9601 74.5528 38.7486C74.5528 40.537 73.9819 42.1366 73.1164 43.2495C72.251 44.3625 71.1399 44.9767 69.9411 44.9767C68.7423 44.9767 67.6317 44.3625 66.7663 43.2495C65.9008 42.1366 65.3299 40.537 65.3299 38.7486C65.3299 36.9601 65.9008 35.3605 66.7663 34.2476C67.6317 33.1346 68.7423 32.5209 69.9411 32.5209Z" fill="black"/>
<path d="M23.3905 40.7168C22.0164 40.7168 20.7974 41.4437 19.9768 42.499C19.1562 43.5542 18.6843 44.9501 18.6843 46.4702C18.6843 47.9903 19.1562 49.3861 19.9768 50.4414C20.7974 51.4967 22.0164 52.2236 23.3905 52.2236C24.7646 52.2236 25.9831 51.4967 26.8037 50.4414C27.6243 49.3861 28.0961 47.9903 28.0961 46.4702C28.0961 44.9501 27.6243 43.5542 26.8037 42.499C25.9831 41.4437 24.7646 40.7168 23.3905 40.7168ZM23.3905 42.7823C24.0439 42.7823 24.6607 43.112 25.1688 43.7653C25.6768 44.4186 26.0263 45.3831 26.0263 46.4702C26.0263 47.5572 25.6768 48.5218 25.1688 49.1751C24.6607 49.8284 24.0439 50.1581 23.3905 50.1581C22.7371 50.1581 22.1202 49.8284 21.6122 49.1751C21.1042 48.5218 20.7542 47.5572 20.7542 46.4702C20.7542 45.3831 21.1042 44.4186 21.6122 43.7653C22.1202 43.112 22.7371 42.7823 23.3905 42.7823Z" fill="black"/>
<path d="M51.285 8.31774C49.6233 8.87227 48.2406 9.78444 47.3127 10.9009C46.3849 12.0174 45.8827 13.4391 46.3364 14.7929C46.7901 16.1467 48.0482 16.9805 49.4624 17.3154C50.8767 17.6502 52.5313 17.5493 54.1929 16.9948C55.8546 16.4402 57.2367 15.5278 58.1646 14.4113C59.0924 13.2948 59.5947 11.8735 59.141 10.5197C58.6874 9.16593 57.4291 8.33165 56.0149 7.9968C54.6006 7.66195 52.9466 7.76321 51.285 8.31774ZM51.9415 10.2766C53.2737 9.83202 54.5818 9.78058 55.537 10.0067C56.4922 10.2329 57.0104 10.6732 57.1785 11.1747C57.3465 11.6761 57.198 12.339 56.5713 13.093C55.9446 13.8471 54.8687 14.5913 53.5364 15.0359C52.2042 15.4805 50.8956 15.5321 49.9405 15.3059C48.9853 15.0797 48.4675 14.6393 48.2994 14.1378C48.1314 13.6364 48.2795 12.9737 48.9061 12.2196C49.5328 11.4655 50.6092 10.7212 51.9415 10.2766Z" fill="black"/>
<path d="M21.0948 32.087C21.0948 32.259 21.0609 32.4293 20.9949 32.5882C20.9289 32.7471 20.8323 32.8915 20.7104 33.0132C20.5885 33.1348 20.4438 33.2313 20.2846 33.2971C20.1253 33.3629 19.9546 33.3968 19.7823 33.3968C19.6099 33.3968 19.4392 33.3629 19.28 33.2971C19.1207 33.2313 18.976 33.1348 18.8542 33.0132C18.7323 32.8915 18.6356 32.7471 18.5696 32.5882C18.5037 32.4293 18.4697 32.259 18.4697 32.087C18.4697 31.915 18.5037 31.7447 18.5696 31.5858C18.6356 31.4269 18.7323 31.2825 18.8542 31.1609C18.976 31.0392 19.1207 30.9427 19.28 30.8769C19.4392 30.8111 19.6099 30.7772 19.7823 30.7772C19.9546 30.7772 20.1253 30.8111 20.2846 30.8769C20.4438 30.9427 20.5885 31.0392 20.7104 31.1609C20.8323 31.2825 20.9289 31.4269 20.9949 31.5858C21.0609 31.7447 21.0948 31.915 21.0948 32.087Z" fill="black"/>
<path d="M48.3197 37.3845C48.3197 37.5565 48.2857 37.7268 48.2198 37.8857C48.1538 38.0446 48.0571 38.189 47.9352 38.3106C47.8134 38.4322 47.6687 38.5287 47.5094 38.5945C47.3502 38.6604 47.1795 38.6942 47.0071 38.6942C46.8348 38.6942 46.6641 38.6604 46.5048 38.5945C46.3456 38.5287 46.2009 38.4322 46.079 38.3106C45.9571 38.189 45.8605 38.0446 45.7945 37.8857C45.7285 37.7268 45.6946 37.5565 45.6946 37.3845C45.6946 37.2125 45.7285 37.0421 45.7945 36.8832C45.8605 36.7243 45.9571 36.5799 46.079 36.4583C46.2009 36.3367 46.3456 36.2402 46.5048 36.1744C46.6641 36.1086 46.8348 36.0747 47.0071 36.0747C47.1795 36.0747 47.3502 36.1086 47.5094 36.1744C47.6687 36.2402 47.8134 36.3367 47.9352 36.4583C48.0571 36.5799 48.1538 36.7243 48.2198 36.8832C48.2857 37.0421 48.3197 37.2125 48.3197 37.3845Z" fill="black"/>
<path d="M73.1192 14.1395C73.1192 14.3115 73.0853 14.4818 73.0193 14.6407C72.9534 14.7996 72.8567 14.944 72.7348 15.0656C72.6129 15.1872 72.4682 15.2837 72.309 15.3495C72.1497 15.4154 71.9791 15.4492 71.8067 15.4492C71.6343 15.4492 71.4636 15.4154 71.3044 15.3495C71.1452 15.2837 71.0005 15.1872 70.8786 15.0656C70.7567 14.944 70.66 14.7996 70.5941 14.6407C70.5281 14.4818 70.4941 14.3115 70.4941 14.1395C70.4941 13.7921 70.6324 13.4589 70.8786 13.2133C71.1247 12.9677 71.4586 12.8297 71.8067 12.8297C72.1548 12.8297 72.4886 12.9677 72.7348 13.2133C72.9809 13.4589 73.1192 13.7921 73.1192 14.1395Z" fill="black"/>
</svg>
