<svg width="593" height="418" viewBox="0 0 593 418" fill="none" xmlns="http://www.w3.org/2000/svg">
<g filter="url(#filter0_d_207_96)">
<path d="M434.684 223.731V223.647C423.177 219.825 405.521 221.122 402.899 222.688C400.11 224.554 397.714 226.95 395.848 229.739C389.65 238.532 385.206 248.438 382.761 258.915L257.608 270.549C252.997 260.593 246.045 251.667 239.064 246.28C237.07 244.61 234.771 243.341 232.295 242.543C231.205 242.413 230.102 242.451 229.024 242.656C224.483 229.499 218.053 216.807 210.015 216.003C193.092 214.311 163.563 219.98 155.511 236.395C147.459 252.809 144.935 293.789 144.935 293.789L139.294 299.429C135.18 291.415 129.458 284.334 122.485 278.629C120.497 276.95 118.197 275.68 115.716 274.892C114.306 274.498 108.665 275.372 102.756 277.304C102.517 277.078 102.291 276.853 102.037 276.641C96.3966 271.917 84.8331 269.336 78.3745 281.379C71.9159 293.422 79.6719 316.225 83.5358 321.386C85.4123 324.023 87.7654 326.285 90.4738 328.056C95.0287 339.338 103.165 353.721 115.688 354.384C119.977 354.615 124.266 353.921 128.263 352.349C132.261 350.777 135.874 348.365 138.857 345.274C146.98 336.813 147.854 324.926 144.794 313.292L146.105 311.374C146.105 311.374 149.024 315.534 160.207 313.856C163.449 313.522 166.522 312.247 169.049 310.189C174.295 323.572 182.77 336.983 196.237 338.985C202.017 339.869 207.919 339.498 213.543 337.897C219.166 336.296 224.379 333.502 228.826 329.706C231.411 327.474 233.666 324.886 235.525 322.021C243.065 321.604 250.169 318.35 255.408 312.911C260.096 307.911 262.777 301.36 262.938 294.508L279.593 292.562C290.047 297.225 301.453 299.36 312.887 298.795C323.835 298.092 334.199 293.605 342.204 286.103L380.152 282.86C380.787 297.568 386.075 311.063 398.485 318.495C403.236 321.331 408.545 323.103 414.047 323.69C419.549 324.276 425.112 323.664 430.355 321.894C447.855 316.027 452.001 290.024 453.129 274.216C454.878 248.832 446.783 227.327 434.684 223.731Z" fill="#141414" stroke="#141414" stroke-width="0.75" stroke-linecap="round" stroke-linejoin="round"/>
<path d="M202.992 330.82C201.537 332.68 199.681 334.189 197.563 335.234" stroke="white" stroke-width="0.5" stroke-linecap="round" stroke-linejoin="round"/>
<path d="M209.831 297.399C209.831 297.399 211.509 315.731 205.262 327.365" stroke="white" stroke-width="0.5" stroke-linecap="round" stroke-linejoin="round"/>
<path d="M214.781 317.649C213.187 324.7 210.015 331.539 203.866 334.571" stroke="white" stroke-width="0.5" stroke-linecap="round" stroke-linejoin="round"/>
<path d="M222.438 296.003C222.438 296.003 225.258 326.477 210.184 333.838" stroke="white" stroke-width="0.5" stroke-linecap="round" stroke-linejoin="round"/>
<path d="M228.756 295.298C228.756 295.298 231.576 325.786 216.487 333.133" stroke="white" stroke-width="0.5" stroke-linecap="round" stroke-linejoin="round"/>
<path d="M419.003 316.662C417.382 318.709 415.368 320.411 413.08 321.668" stroke="white" stroke-width="0.5" stroke-linecap="round" stroke-linejoin="round"/>
<path d="M430.341 278.601C430.341 278.601 429.438 299.458 421.696 312.727" stroke="white" stroke-width="0.5" stroke-linecap="round" stroke-linejoin="round"/>
<path d="M432.358 301.7C429.819 309.724 425.758 317.508 419.342 320.892" stroke="white" stroke-width="0.5" stroke-linecap="round" stroke-linejoin="round"/>
<path d="M442.863 277.05C442.863 277.05 441.354 311.797 425.603 320.117" stroke="white" stroke-width="0.5" stroke-linecap="round" stroke-linejoin="round"/>
<path d="M449.153 276.288C449.153 276.288 447.644 311.021 431.892 319.355" stroke="white" stroke-width="0.5" stroke-linecap="round" stroke-linejoin="round"/>
<path d="M119.665 349.674C118.465 351.513 116.882 353.071 115.025 354.243" stroke="white" stroke-width="0.5" stroke-linecap="round" stroke-linejoin="round"/>
<path d="M121.893 320.018C121.893 320.018 125.87 335.53 121.385 346.374" stroke="white" stroke-width="0.5" stroke-linecap="round" stroke-linejoin="round"/>
<path d="M129.268 336.672C128.633 342.948 126.448 349.265 120.99 352.734" stroke="white" stroke-width="0.5" stroke-linecap="round" stroke-linejoin="round"/>
<path d="M133.795 317C133.795 317 140.423 342.736 126.941 351.211" stroke="white" stroke-width="0.5" stroke-linecap="round" stroke-linejoin="round"/>
<path d="M139.746 315.477C139.746 315.477 146.387 341.213 132.892 349.702" stroke="white" stroke-width="0.5" stroke-linecap="round" stroke-linejoin="round"/>
<path d="M188.355 286.949C191.711 306.142 189.61 322.556 183.687 323.614C177.765 324.672 170.22 309.921 166.864 290.729C163.508 271.536 165.609 255.122 171.546 254.064C177.482 253.007 184.999 267.743 188.355 286.949Z" fill="#F6BA0A" stroke="#141414" stroke-linecap="round" stroke-linejoin="round"/>
<path d="M185.365 287.358C186.295 294.72 185.435 300.882 183.419 301.136C181.402 301.39 179.033 295.636 178.102 288.275C177.172 280.914 178.102 274.737 180.048 274.483C181.994 274.23 184.434 279.997 185.365 287.358Z" fill="#F6BA0A" stroke="#141414" stroke-linecap="round" stroke-linejoin="round"/>
<path d="M171.221 269.759C171.421 267.289 171.812 264.837 172.391 262.426" stroke="#141414" stroke-width="0.75" stroke-linecap="round" stroke-linejoin="round"/>
<path d="M180.571 316.69C176.668 308.877 173.877 300.556 172.279 291.97C171.217 285.896 170.787 279.729 170.996 273.567" stroke="#141414" stroke-width="0.75" stroke-linecap="round" stroke-linejoin="round"/>
<path d="M105.363 343.988C109.626 342.807 109.981 330.66 106.156 316.858C102.331 303.056 95.7739 292.825 91.5109 294.006C87.2478 295.187 86.8928 307.334 90.718 321.136C94.5431 334.939 101.1 345.17 105.363 343.988Z" fill="#F6BA0A" stroke="#141414" stroke-linecap="round" stroke-linejoin="round"/>
<path d="M104.759 317.409C106.099 322.655 106.029 327.196 104.59 327.563C103.152 327.929 100.924 323.967 99.5841 318.735C98.2444 313.503 98.3149 308.934 99.7533 308.582C101.192 308.229 103.42 312.163 104.759 317.409Z" stroke="#141414" stroke-width="0.75" stroke-linecap="round" stroke-linejoin="round"/>
<path d="M92.9419 305.944C92.8632 304.137 92.9245 302.327 93.1252 300.529" stroke="#141414" stroke-width="0.75" stroke-linecap="round" stroke-linejoin="round"/>
<path d="M103.927 339.07C100.401 333.765 97.6339 327.993 95.7061 321.922C94.3883 317.623 93.5188 313.2 93.1113 308.723" stroke="#141414" stroke-width="0.75" stroke-linecap="round" stroke-linejoin="round"/>
<path d="M407.651 81.3034C392.787 50.632 386.371 47.9668 376.486 47.4591C366.6 46.9515 343.262 44.0465 317.258 48.2065C317.258 48.2065 244.719 46.9374 188.594 80.9367C130.001 116.431 101.487 147.61 97.4963 163.771C93.5055 179.931 79.8831 222.039 73.4245 246.181C66.9659 270.323 62.5662 291.589 70.8016 311.134C75.7795 322.951 81.0818 326.505 87.893 326.448C86.8509 324.579 85.9323 322.643 85.1431 320.653C78.3743 303.886 79.1922 279.899 86.9199 278.347C94.6477 276.796 99.259 292.858 103.927 310.372C104.853 314.233 106.108 318.007 107.678 321.654C119.227 317.296 137.729 307.552 162.322 297.427C159.987 282.045 159.935 266.402 162.167 251.004C165.805 226.932 181.19 221.616 187.889 236.268C193.431 248.339 195.489 275.358 196.039 284.468C205.911 281.069 214.174 278.827 219.265 278.517C219.265 278.517 303.424 259.507 365.458 257.984C427.492 256.461 458.53 254.981 458.53 254.981C458.53 254.981 422.514 111.918 407.651 81.3034Z" fill="white"/>
<mask id="mask0_207_96" style="mask-type:luminance" maskUnits="userSpaceOnUse" x="66" y="46" width="393" height="281">
<path d="M407.651 81.3034C392.787 50.632 386.371 47.9668 376.486 47.4591C366.6 46.9515 343.262 44.0465 317.258 48.2065C317.258 48.2065 244.719 46.9374 188.594 80.9367C130.001 116.431 101.487 147.61 97.4963 163.771C93.5055 179.931 79.8831 222.039 73.4245 246.181C66.9659 270.323 62.5662 291.589 70.8016 311.134C75.7795 322.951 81.0818 326.505 87.893 326.448C86.8509 324.579 85.9323 322.643 85.1431 320.653C78.3743 303.886 79.1922 279.899 86.9199 278.347C94.6477 276.796 99.259 292.858 103.927 310.372C104.853 314.233 106.108 318.007 107.678 321.654C119.227 317.296 137.729 307.552 162.322 297.427C159.987 282.045 159.935 266.402 162.167 251.004C165.805 226.932 181.19 221.616 187.889 236.268C193.431 248.339 195.489 275.358 196.039 284.468C205.911 281.069 214.174 278.827 219.265 278.517C219.265 278.517 303.424 259.507 365.458 257.984C427.492 256.461 458.53 254.981 458.53 254.981C458.53 254.981 422.514 111.918 407.651 81.3034Z" fill="white"/>
</mask>
<g mask="url(#mask0_207_96)">
<path d="M209.324 229.287C209.324 229.287 200.792 240.964 190.413 243.46C194.08 256.913 195.588 276.824 196.054 284.355C204.867 281.323 212.355 279.193 217.488 278.573C218.236 274.173 218.687 271.367 218.687 271.367L209.324 229.287Z" fill="#F6BA0A"/>
<path opacity="0.2" d="M104.294 311.642C108.214 312.036 110.823 313.729 118.79 311.74C132.892 308.229 122.753 281.013 146.148 269.9C150.689 267.61 155.631 266.222 160.701 265.811C160.911 260.831 161.382 255.865 162.111 250.934C162.732 246.09 164.162 241.385 166.342 237.015C159.954 235.055 158.797 233.179 147.911 238.355C124.502 249.467 128.013 278.136 113.982 281.647C102.785 284.468 102.164 279.969 93.6611 282.056C97.6378 287.697 100.712 298.682 103.814 310.26C104.054 310.781 104.167 311.162 104.294 311.642Z" fill="#F6BA0A"/>
<g style="mix-blend-mode:multiply">
<path opacity="0.2" d="M81.2658 287.542C74.7085 292.054 70.8023 298.823 68.5742 304.534C69.1786 306.788 69.9227 309.001 70.8023 311.162C75.7802 322.979 81.0825 326.533 87.8936 326.477C86.8516 324.607 85.933 322.671 85.1438 320.681C80.8428 310.006 79.6864 296.426 81.2658 287.542Z" fill="#F6BA0A"/>
</g>
<g style="mix-blend-mode:multiply" opacity="0.2">
<path d="M376.486 47.4591L373.934 47.304C271.089 73.6179 229.249 197.572 214.852 257.308C215.627 263.244 216.473 269.068 217.39 274.737C219.138 274.399 217.926 278.517 219.265 278.446C219.265 278.446 303.425 259.437 365.458 257.914C427.492 256.391 458.53 254.91 458.53 254.91C458.53 254.91 422.514 111.918 407.651 81.3034C392.788 50.6884 386.371 47.9104 376.486 47.4591Z" fill="#F6BA0A"/>
</g>
</g>
<path d="M407.651 81.3034C392.787 50.632 386.371 47.9668 376.486 47.4591C366.6 46.9515 343.262 44.0465 317.258 48.2065C317.258 48.2065 244.719 46.9374 188.594 80.9367C130.001 116.431 101.487 147.61 97.4963 163.771C93.5055 179.931 79.8831 222.039 73.4245 246.181C66.9659 270.323 62.5662 291.589 70.8016 311.134C75.7795 322.951 81.0818 326.505 87.893 326.448C86.8509 324.579 85.9323 322.643 85.1431 320.653C78.3743 303.886 79.1922 279.899 86.9199 278.347C94.6477 276.796 99.259 292.858 103.927 310.372C104.853 314.233 106.108 318.007 107.678 321.654C119.227 317.296 137.729 307.552 162.322 297.427C159.987 282.045 159.935 266.402 162.167 251.004C165.805 226.932 181.19 221.616 187.889 236.268C193.431 248.339 195.489 275.358 196.039 284.468C205.911 281.069 214.174 278.827 219.265 278.517C219.265 278.517 303.424 259.507 365.458 257.984C427.492 256.461 458.53 254.981 458.53 254.981C458.53 254.981 422.514 111.918 407.651 81.3034Z" stroke="#141414" stroke-linecap="round" stroke-linejoin="round"/>
<path opacity="0.2" d="M99.8096 236.084C100.778 236.89 101.956 237.401 103.205 237.559C104.455 237.716 105.723 237.513 106.86 236.973C111.303 235.196 111.754 228.512 111.754 228.512L118.41 228.075L119.749 207.19L105.084 212.957C105.084 212.957 101.149 233.419 99.8096 236.084Z" fill="#F6BA0A"/>
<path d="M80.5743 297.159C76.3635 299.397 72.3819 302.042 68.6865 305.056C69.2712 307.122 69.9775 309.151 70.8018 311.134C75.7797 322.951 81.082 326.505 87.8931 326.448C86.8511 324.579 85.9325 322.643 85.1433 320.653C82.2524 313.151 80.7058 305.198 80.5743 297.159Z" fill="#141414" stroke="#141414" stroke-width="0.75" stroke-linecap="round" stroke-linejoin="round"/>
<path d="M103.039 285.511C102.657 285.509 102.283 285.405 101.956 285.209C101.628 285.013 101.359 284.732 101.177 284.397C100.921 283.91 100.865 283.341 101.024 282.814C101.182 282.286 101.541 281.842 102.023 281.577C102.362 281.393 129.804 264.387 152.536 252.301C152.781 252.171 153.05 252.09 153.327 252.063C153.603 252.036 153.883 252.064 154.148 252.146C154.414 252.227 154.661 252.36 154.876 252.536C155.09 252.713 155.268 252.93 155.399 253.176C155.529 253.421 155.61 253.69 155.637 253.966C155.664 254.243 155.636 254.522 155.554 254.788C155.473 255.054 155.34 255.301 155.164 255.516C154.987 255.73 154.77 255.908 154.524 256.038C131.806 268.109 104.378 285.102 104.04 285.285C103.731 285.446 103.386 285.523 103.039 285.511Z" fill="#141414" stroke="#141414" stroke-miterlimit="10"/>
<path d="M138.913 144.155L137.94 168.368C137.729 171.667 139.647 173.261 142.171 171.837L181.162 146.454C182.596 145.454 183.751 144.107 184.521 142.538C185.291 140.969 185.649 139.23 185.562 137.485L185.322 110.48C185.04 108.026 183.376 107.025 181.331 108.083C173.998 111.876 159.84 124.709 142.918 136.653C141.772 137.562 140.824 138.697 140.135 139.987C139.446 141.278 139.03 142.697 138.913 144.155Z" fill="#F6BA0A" stroke="#141414" stroke-linecap="round" stroke-linejoin="round"/>
<path d="M165.256 137.33L184.307 141.983" stroke="#141414" stroke-linecap="round" stroke-linejoin="round"/>
<path d="M139.196 171.95L150.957 145.974" stroke="#141414" stroke-linecap="round" stroke-linejoin="round"/>
<path d="M139.14 143.351L156.428 145.509C158.219 145.777 160.447 144.296 162.069 141.729L184.632 109.422" stroke="#141414" stroke-linecap="round" stroke-linejoin="round"/>
<path d="M235.666 99.1703L239.671 159.808C239.774 161.558 240.234 163.269 241.021 164.836C241.808 166.403 242.906 167.793 244.248 168.921C245.59 170.05 247.148 170.893 248.827 171.399C250.506 171.905 252.27 172.063 254.012 171.865L388.712 154.379C390.568 154.165 392.355 153.551 393.95 152.578C395.546 151.606 396.911 150.299 397.951 148.748C398.992 147.196 399.683 145.437 399.977 143.593C400.271 141.748 400.162 139.861 399.655 138.063L382.648 77.9331C381.844 75.0756 380.076 72.584 377.645 70.8802C375.214 69.1764 372.269 68.3651 369.308 68.5836C347.479 70.1912 295.119 74.8871 245.692 85.9005C242.724 86.5748 240.09 88.2763 238.256 90.7045C236.421 93.1327 235.504 96.1312 235.666 99.1703Z" fill="#F6BA0A" stroke="#141414" stroke-linecap="round" stroke-linejoin="round"/>
<path d="M335.789 117.968L397.286 147.102" stroke="#141414" stroke-linecap="round" stroke-linejoin="round"/>
<path d="M244.776 169.2L296.713 122.72" stroke="#141414" stroke-linecap="round" stroke-linejoin="round"/>
<path d="M236.117 97.5768L310.645 128.22C313.443 129.363 316.513 129.669 319.482 129.101C322.451 128.532 325.191 127.114 327.37 125.019L380.491 74.8588" stroke="#141414" stroke-linecap="round" stroke-linejoin="round"/>
<path d="M384.957 162.962C397.617 162.65 407.632 152.311 407.325 139.87C407.019 127.428 396.508 117.594 383.848 117.906C371.189 118.218 361.174 128.556 361.48 140.998C361.787 153.44 372.298 163.273 384.957 162.962Z" fill="#141414" stroke="#141414" stroke-width="0.75" stroke-linecap="round" stroke-linejoin="round"/>
<path d="M381.929 151.192H381.859C381.414 151.193 380.975 151.089 380.578 150.888C380.18 150.687 379.837 150.395 379.574 150.035L370.563 137.598C370.124 136.992 369.943 136.236 370.061 135.497C370.178 134.758 370.585 134.096 371.191 133.656C371.796 133.217 372.552 133.036 373.291 133.154C374.03 133.271 374.693 133.678 375.132 134.284L381.859 143.563L397.935 121.352C398.374 120.746 399.036 120.34 399.775 120.222C400.515 120.105 401.27 120.285 401.876 120.725C402.482 121.164 402.888 121.826 403.006 122.566C403.124 123.305 402.943 124.06 402.504 124.666L384.171 150.049C383.911 150.4 383.574 150.686 383.185 150.885C382.796 151.083 382.366 151.188 381.929 151.192Z" fill="white" stroke="#141414" stroke-linecap="round" stroke-linejoin="round"/>
<path d="M296.754 211.97C296.754 211.97 344.7 202.776 377.558 203.425L379.532 211.322C379.532 211.322 310.546 214.593 297.403 221.193L296.754 211.97Z" fill="#141414" stroke="#141414" stroke-width="0.75" stroke-linecap="round" stroke-linejoin="round"/>
<path d="M297.403 221.165L298.813 229.062C298.959 229.942 299.444 230.73 300.163 231.257C300.883 231.784 301.78 232.008 302.663 231.882C314.692 230.162 356.913 224.366 378.813 224.902C379.352 224.918 379.888 224.807 380.376 224.577C380.865 224.348 381.292 224.006 381.623 223.58C381.955 223.154 382.18 222.655 382.283 222.125C382.385 221.595 382.36 221.049 382.211 220.53L379.588 211.35" stroke="#141414" stroke-linecap="round" stroke-linejoin="round"/>
<path d="M122.442 207.218L122.174 174.643L123.796 141.151C123.808 140.831 123.723 140.514 123.553 140.243C123.382 139.971 123.134 139.758 122.84 139.63C122.546 139.502 122.22 139.466 121.905 139.526C121.59 139.586 121.301 139.74 121.075 139.967C115.011 146.172 104.632 155.563 101.558 163.263C97.5669 173.233 92.8428 222.307 92.8428 222.307L122.442 207.218Z" fill="#141414" stroke="#141414" stroke-width="0.75" stroke-linecap="round" stroke-linejoin="round"/>
<path d="M84.8896 200.675H80.1655C77.759 200.675 75.8081 202.626 75.8081 205.032V229.372C75.8081 231.778 77.759 233.729 80.1655 233.729H84.8896C87.2962 233.729 89.2471 231.778 89.2471 229.372V205.032C89.2471 202.626 87.2962 200.675 84.8896 200.675Z" fill="#141414" stroke="#141414" stroke-width="0.75" stroke-linecap="round" stroke-linejoin="round"/>
<path d="M87.8652 177.943C90.1015 178.372 92.2855 179.038 94.3802 179.931C96.1171 180.786 97.6956 181.93 99.0479 183.316L106.099 173.994C106.099 173.994 95.7622 169.665 93.8021 167.028L91.856 164.377L87.8652 177.943Z" fill="white"/>
<mask id="mask1_207_96" style="mask-type:luminance" maskUnits="userSpaceOnUse" x="87" y="164" width="20" height="20">
<path d="M87.8652 177.943C90.1015 178.372 92.2855 179.038 94.3802 179.931C96.1171 180.786 97.6956 181.93 99.0479 183.316L106.099 173.994C106.099 173.994 95.7622 169.665 93.8021 167.028L91.856 164.377L87.8652 177.943Z" fill="white"/>
</mask>
<g mask="url(#mask1_207_96)">
<g style="mix-blend-mode:multiply" opacity="0.5">
<path d="M93.788 167.028L91.9688 164.504L91.7573 164.645L87.8652 177.9C87.8652 177.9 88.6126 178.041 89.6703 178.295L99.753 170.991C97.5494 170.027 95.5308 168.686 93.788 167.028Z" fill="#F6BA0A"/>
</g>
</g>
<path d="M87.8652 177.943C90.1015 178.372 92.2855 179.038 94.3802 179.931C96.1171 180.786 97.6956 181.93 99.0479 183.316L106.099 173.994C106.099 173.994 95.7622 169.665 93.8021 167.028L91.856 164.377L87.8652 177.943Z" stroke="#141414" stroke-width="0.75" stroke-linecap="round" stroke-linejoin="round"/>
<path d="M102.756 170.032L94.1401 181.017L95.3106 184.754L108.439 171.118L102.756 170.032Z" fill="#F6BA0A" stroke="#141414" stroke-linecap="round" stroke-linejoin="round"/>
<path d="M88.9654 138.994C83.1414 134.481 67.9679 137.358 64.9924 148.047C63.1592 154.633 64.1745 164.504 64.1745 164.504L81.4632 160.837L82.8734 162.967C85.6938 167.197 91.7998 164.377 93.3792 162.967C94.2394 162.219 94.183 160.019 93.9574 158.2L94.6484 158.045C94.6484 158.045 94.7753 143.52 88.9654 138.994Z" fill="#141414" stroke="#141414" stroke-width="0.75" stroke-linecap="round" stroke-linejoin="round"/>
<path d="M82.5065 159.54C74.9182 158.695 67.2371 159.424 59.9437 161.683C48.6623 165.463 46.9278 168.734 55.0081 168.537C63.0884 168.339 82.5065 159.54 82.5065 159.54Z" fill="#141414" stroke="#141414" stroke-width="0.75" stroke-linecap="round" stroke-linejoin="round"/>
<path d="M68.5741 155.436C69.8903 155.436 70.9573 153.978 70.9573 152.179C70.9573 150.38 69.8903 148.921 68.5741 148.921C67.2579 148.921 66.1909 150.38 66.1909 152.179C66.1909 153.978 67.2579 155.436 68.5741 155.436Z" fill="#F6BA0A"/>
<path d="M122.175 174.643C122.175 174.643 106.733 170.723 101.981 174.333C97.2287 177.943 96.016 183.908 97.539 191.142C99.062 198.376 102.771 217.4 102.771 217.4L122.443 207.218L122.175 174.643Z" fill="#141414" stroke="#141414" stroke-width="0.75" stroke-linecap="round" stroke-linejoin="round"/>
<path d="M97.6661 214.368C97.6661 214.368 96.8341 221.672 95.8611 222.702C94.8881 223.731 69.2228 202.17 67.6575 200.139C66.0923 198.108 67.164 190.86 67.6575 188.59C68.1511 186.319 67.3191 185.078 64.8372 186.644C62.3553 188.209 63.0181 194.724 63.0181 194.724C63.0181 194.724 55.4454 192.905 53.9365 192.693C52.4276 192.482 51.1162 194.357 51.3418 195.852C51.5674 197.347 53.5558 197.474 53.5558 197.474C53.0471 199.638 53.1894 201.905 53.9647 203.989C55.2903 206.724 56.7851 208.445 59.6054 209.122C62.5153 209.576 65.4615 209.755 68.4049 209.658C68.4049 209.658 81.5196 222.152 85.3271 226.82C89.1345 231.487 97.1584 237.833 101.149 236.691C105.14 235.549 108.948 215.623 108.948 215.623L97.6661 214.368Z" fill="white"/>
<mask id="mask2_207_96" style="mask-type:luminance" maskUnits="userSpaceOnUse" x="51" y="185" width="58" height="52">
<path d="M97.6661 214.368C97.6661 214.368 96.8341 221.672 95.8611 222.702C94.8881 223.731 69.2228 202.17 67.6575 200.139C66.0923 198.108 67.164 190.86 67.6575 188.59C68.1511 186.319 67.3191 185.078 64.8372 186.644C62.3553 188.209 63.0181 194.724 63.0181 194.724C63.0181 194.724 55.4454 192.905 53.9365 192.693C52.4276 192.482 51.1162 194.357 51.3418 195.852C51.5674 197.347 53.5558 197.474 53.5558 197.474C53.0471 199.638 53.1894 201.905 53.9647 203.989C55.2903 206.724 56.7851 208.445 59.6054 209.122C62.5153 209.576 65.4615 209.755 68.4049 209.658C68.4049 209.658 81.5196 222.152 85.3271 226.82C89.1345 231.487 97.1584 237.833 101.149 236.691C105.14 235.549 108.948 215.623 108.948 215.623L97.6661 214.368Z" fill="white"/>
</mask>
<g mask="url(#mask2_207_96)">
<g style="mix-blend-mode:multiply" opacity="0.5">
<path d="M95.8614 222.702L103.364 225.198C103.602 226.771 103.269 228.378 102.426 229.728C101.583 231.078 100.285 232.082 98.7664 232.559C95.4525 233.659 89.5015 229.894 85.271 226.721L85.3979 226.876C89.2759 231.558 97.2293 237.889 101.22 236.747C105.211 235.605 109.018 215.679 109.018 215.679L97.6665 214.269C97.6665 214.269 96.8344 221.672 95.8614 222.702Z" fill="#F6BA0A"/>
</g>
</g>
<path d="M97.6661 214.368C97.6661 214.368 96.8341 221.672 95.8611 222.702C94.8881 223.731 69.2228 202.17 67.6575 200.139C66.0923 198.108 67.164 190.86 67.6575 188.59C68.1511 186.319 67.3191 185.078 64.8372 186.644C62.3553 188.209 63.0181 194.724 63.0181 194.724C63.0181 194.724 55.4454 192.905 53.9365 192.693C52.4276 192.482 51.1162 194.357 51.3418 195.852C51.5674 197.347 53.5558 197.474 53.5558 197.474C53.0471 199.638 53.1894 201.905 53.9647 203.989C55.2903 206.724 56.7851 208.445 59.6054 209.122C62.5153 209.576 65.4615 209.755 68.4049 209.658C68.4049 209.658 81.5196 222.152 85.3271 226.82C89.1345 231.487 97.1584 237.833 101.149 236.691C105.14 235.549 108.948 215.623 108.948 215.623L97.6661 214.368Z" stroke="#141414" stroke-width="0.75" stroke-linecap="round" stroke-linejoin="round"/>
<path d="M72.0148 204.102L68.4048 209.714L70.2521 210.969L73.9468 205.681L72.0148 204.102Z" fill="#141414" stroke="#141414" stroke-miterlimit="10"/>
<path d="M70.7739 209.39C71.5528 209.39 72.1841 208.758 72.1841 207.98C72.1841 207.201 71.5528 206.569 70.7739 206.569C69.9951 206.569 69.3638 207.201 69.3638 207.98C69.3638 208.758 69.9951 209.39 70.7739 209.39Z" fill="white" stroke="#141414" stroke-width="0.75" stroke-linecap="round" stroke-linejoin="round"/>
<path d="M67.3188 166.309C67.3188 166.309 68.1791 168.438 69.6174 172.175C71.0558 175.912 78.7836 183.795 82.5629 184.246C86.3421 184.698 90.8688 170.962 91.588 168.128C91.8277 167.197 92.0674 165.702 92.0674 165.702C92.0674 165.702 96.8197 163.46 95.7198 160.753C94.6199 158.045 92.3918 156.804 91.3342 157.636C90.2765 158.468 90.0932 161.98 88.5138 162.008C86.9344 162.036 86.0742 161.542 84.6781 159.681C83.282 157.82 68.8136 161.683 67.3188 166.309Z" fill="white"/>
<mask id="mask3_207_96" style="mask-type:luminance" maskUnits="userSpaceOnUse" x="67" y="157" width="29" height="28">
<path d="M67.3188 166.309C67.3188 166.309 68.1791 168.438 69.6174 172.175C71.0558 175.912 78.7836 183.795 82.5629 184.246C86.3421 184.698 90.8688 170.962 91.588 168.128C91.8277 167.197 92.0674 165.702 92.0674 165.702C92.0674 165.702 96.8197 163.46 95.7198 160.753C94.6199 158.045 92.3918 156.804 91.3342 157.636C90.2765 158.468 90.0932 161.98 88.5138 162.008C86.9344 162.036 86.0742 161.542 84.6781 159.681C83.282 157.82 68.8136 161.683 67.3188 166.309Z" fill="white"/>
</mask>
<g mask="url(#mask3_207_96)">
<path opacity="0.5" d="M84.6499 159.681C83.2397 157.834 68.8136 161.698 67.3188 166.309L68.1367 168.396C73.6512 165.07 79.6439 162.611 85.905 161.105C85.4372 160.676 85.0164 160.199 84.6499 159.681Z" fill="#F6BA0A"/>
<g style="mix-blend-mode:multiply">
<path opacity="0.5" d="M95.5357 160.372C94.3794 157.947 92.3346 156.847 91.3052 157.636C90.66 158.478 90.1813 159.435 89.895 160.457C91.7681 160.247 93.6572 160.218 95.5357 160.372Z" fill="#F6BA0A"/>
</g>
</g>
<path d="M67.3188 166.309C67.3188 166.309 68.1791 168.438 69.6174 172.175C71.0558 175.912 78.7836 183.795 82.5629 184.246C86.3421 184.698 90.8688 170.962 91.588 168.128C91.8277 167.197 92.0674 165.702 92.0674 165.702C92.0674 165.702 96.8197 163.46 95.7198 160.753C94.6199 158.045 92.3918 156.804 91.3342 157.636C90.2765 158.468 90.0932 161.98 88.5138 162.008C86.9344 162.036 86.0742 161.542 84.6781 159.681C83.282 157.82 68.8136 161.683 67.3188 166.309Z" stroke="#141414" stroke-width="0.75" stroke-linecap="round" stroke-linejoin="round"/>
<path d="M72.4373 167.324C72.6911 168.184 72.6065 168.974 72.2681 169.073C71.9296 169.171 71.4361 168.551 71.1823 167.663C70.9284 166.774 71.013 166.013 71.3515 165.914C71.6899 165.815 72.1835 166.492 72.4373 167.324Z" fill="#141414" stroke="#141414" stroke-miterlimit="10"/>
<path d="M69.8149 164.927C71.7892 164.363 72.6353 165.843 72.875 167.211L73.2417 168.833L74.4685 175.108L76.33 174.319" stroke="#141414" stroke-width="0.5" stroke-linecap="round" stroke-linejoin="round"/>
<path d="M77.853 165.406C78.2819 164.936 78.8157 164.573 79.4112 164.348C80.0066 164.122 80.6468 164.04 81.2798 164.109" stroke="#141414" stroke-width="0.5" stroke-linecap="round" stroke-linejoin="round"/>
<path d="M79.4889 161.5C78.6866 161.668 77.9504 162.065 77.3696 162.643C76.7888 163.222 76.3885 163.956 76.2173 164.758" stroke="#141414" stroke-width="0.5" stroke-linecap="round" stroke-linejoin="round"/>
<path d="M78.0078 176.349C78.0078 176.349 82.0973 175.531 82.4217 172.598" stroke="#141414" stroke-width="0.5" stroke-linecap="round" stroke-linejoin="round"/>
<path d="M112.727 224.944L92.0815 219.19C92.0815 219.19 93.9007 183.936 97.0877 177.971C102.051 168.706 113.432 172.88 115.575 184.528C117.578 195.528 112.727 224.944 112.727 224.944Z" fill="#F6BA0A" stroke="#141414" stroke-linecap="round" stroke-linejoin="round"/>
<path d="M92.5752 215.27C92.5752 215.27 103.857 217.865 110.724 220.121" stroke="#141414" stroke-width="0.5" stroke-linecap="round" stroke-linejoin="round"/>
<path d="M110.442 171.809C110.442 171.809 117.155 172.33 121.54 175.94" stroke="#F6BA0A" stroke-width="0.5" stroke-linecap="round" stroke-linejoin="round"/>
<path d="M228.728 261.989C228.728 261.989 198.663 272.594 195.913 275.485C193.163 278.376 193.445 289.657 199.932 295.143C206.419 300.628 252.658 288.19 285.713 284.566C318.768 280.942 391.335 275.612 420.949 274.173C450.563 272.735 464.03 276.641 466.625 267.404C469.219 258.168 468.895 248.297 463.254 246.294C457.614 244.292 354.84 227.835 228.728 261.989Z" fill="#141414" stroke="#141414" stroke-width="0.75" stroke-linecap="round" stroke-linejoin="round"/>
<path d="M193.77 281.647C193.77 281.647 195.18 293.873 202.696 295.749C210.212 297.624 299.533 280.702 352.175 278.827C404.817 276.951 450.887 275.541 450.887 275.541" stroke="white" stroke-width="0.5" stroke-linecap="round" stroke-linejoin="round"/>
<path d="M237.4 287.852C272.316 279.391 344.137 267.433 464.989 270.831" stroke="white" stroke-width="0.5" stroke-linecap="round" stroke-linejoin="round"/>
<path d="M208.774 295.298C208.774 295.298 216.798 293.352 228.996 290.024" stroke="white" stroke-width="0.5" stroke-linecap="round" stroke-linejoin="round"/>
<path d="M216.134 296.694C216.514 301.936 216.372 307.203 215.711 312.417" stroke="white" stroke-width="0.5" stroke-linecap="round" stroke-linejoin="round"/>
<path d="M214.852 71.1924C214.852 71.1924 208.125 79.0753 207.604 86.1403" stroke="#141414" stroke-width="0.75" stroke-linecap="round" stroke-linejoin="round"/>
<path d="M206.898 91.8374C206.898 91.8374 201.835 172.373 215.232 258.083" stroke="#141414" stroke-width="0.75" stroke-linecap="round" stroke-linejoin="round"/>
<path d="M208.492 184.895C208.492 184.895 197.563 188.702 197.422 193.638C197.055 206.908 198.451 235.224 201.342 237.974C204.233 240.724 213.216 233.447 213.216 233.447C213.216 233.447 225.907 234.547 227.318 231.699C228.728 228.85 223.44 188.759 222.65 185.262C221.86 181.764 208.492 184.895 208.492 184.895Z" fill="#F6BA0A" stroke="#141414" stroke-linecap="round" stroke-linejoin="round"/>
<path d="M436.771 203.989C439.615 205.379 442.706 206.193 445.866 206.386C442.369 193.243 438.407 178.606 434.317 163.996C430.622 163.742 425.856 163.742 425.955 165.406C426.025 168.255 433.203 201.93 436.771 203.989Z" fill="#F6BA0A" stroke="#141414" stroke-linecap="round" stroke-linejoin="round"/>
<path d="M206.926 189.041C206.926 189.041 207.406 214.424 209.281 224.295" stroke="#141414" stroke-width="0.75" stroke-linecap="round" stroke-linejoin="round"/>
<path d="M338.75 194.907C338.75 194.907 401.672 184.768 474.987 197.728" stroke="#141414" stroke-linecap="round" stroke-linejoin="round"/>
<path d="M530.309 234.66C534.638 235.957 538.897 237.325 543 238.792" stroke="#141414" stroke-linecap="round" stroke-linejoin="round"/>
<path d="M417.338 215.51C417.338 215.51 467.23 218.542 515.007 230.486" stroke="#141414" stroke-linecap="round" stroke-linejoin="round"/>
<path d="M265.491 331.694C306.572 325.416 348.308 324.672 389.587 329.48" stroke="#141414" stroke-linecap="round" stroke-linejoin="round"/>
<path d="M260.33 325.052C260.33 325.052 289.859 321.358 299.462 320.624" stroke="#141414" stroke-linecap="round" stroke-linejoin="round"/>
<path d="M458.093 51.1679C462.324 51.7743 466.554 52.5781 470.39 53.4947" stroke="#141414" stroke-linecap="round" stroke-linejoin="round"/>
<path d="M397.3 49.7718C414.676 48.5445 432.12 48.6623 449.477 50.1244" stroke="#141414" stroke-linecap="round" stroke-linejoin="round"/>
<path d="M169.783 220.601C169.783 220.601 211.919 200.647 272.881 195.105" stroke="#141414" stroke-linecap="round" stroke-linejoin="round"/>
<path d="M240.742 184.007C240.742 184.007 266.252 177.365 305.06 175.137" stroke="#141414" stroke-linecap="round" stroke-linejoin="round"/>
<path d="M169.091 324.897C174.212 334.069 182.476 341.081 192.359 344.64" stroke="#141414" stroke-linecap="round" stroke-linejoin="round"/>
<path d="M167.681 331.243C167.681 331.243 174.027 341.114 182.488 345.345" stroke="#141414" stroke-linecap="round" stroke-linejoin="round"/>
<path d="M375.682 295.989C375.682 295.989 379.912 315.731 396.834 324.192" stroke="#141414" stroke-linecap="round" stroke-linejoin="round"/>
<path d="M377.797 313.616C381.15 318.527 385.783 322.428 391.194 324.897" stroke="#141414" stroke-linecap="round" stroke-linejoin="round"/>
<path d="M98.8081 351.634C98.8081 351.634 103.039 358.685 117.845 358.685" stroke="#141414" stroke-linecap="round" stroke-linejoin="round"/>
<path d="M95.9878 355.865C101.382 360.351 108.032 363.06 115.025 363.621" stroke="#141414" stroke-linecap="round" stroke-linejoin="round"/>
</g>
<defs>
<filter id="filter0_d_207_96" x="0.624512" y="0.500208" width="591.876" height="416.621" filterUnits="userSpaceOnUse" color-interpolation-filters="sRGB">
<feFlood flood-opacity="0" result="BackgroundImageFix"/>
<feColorMatrix in="SourceAlpha" type="matrix" values="0 0 0 0 0 0 0 0 0 0 0 0 0 0 0 0 0 0 127 0" result="hardAlpha"/>
<feOffset dy="4"/>
<feGaussianBlur stdDeviation="24.5"/>
<feComposite in2="hardAlpha" operator="out"/>
<feColorMatrix type="matrix" values="0 0 0 0 0.704167 0 0 0 0 0.704167 0 0 0 0 0.704167 0 0 0 0.25 0"/>
<feBlend mode="normal" in2="BackgroundImageFix" result="effect1_dropShadow_207_96"/>
<feBlend mode="normal" in="SourceGraphic" in2="effect1_dropShadow_207_96" result="shape"/>
</filter>
</defs>
</svg>
